Patient4_TMGait_0pt4_02_left_12_EMG.mot
version=1
nRows=40
nColumns=33
inDegrees=no
endheader
time	1LAddLong	2LGlutMax	3LGlutMed	4LIliopsoas	5LSemiMemb	6LBicFemLong	7LRecFem	8LVastMed	9LVastLat	10LGasMed	11LTibAnt	12lTibPost	13LPeroneusLong	14LSol	15LExtDigLong	16LFlexDigLong	17RAddLong	18RGlutMax	19RGlutMed	20RIliopsoas	21RSemiMemb	22RBicFemLong	23RRecFem	24RVastMed	25RVastLat	26RGasMed	27RTibAnt	28RTibPost	29RPeroneusLong	30RSol	31RExtDigLong	32RFlexDigLong
16	-0.003662	0.53665	0.061798	-0.001526	-0.007782	0.041046	0.51025	0.009613	-0.31632	-0.059814	-0.024567	0.008087	0.069275	-0.05249	0.013428	0.014496	0.011292	-1.0884	0.32379	-0.049896	-0.10422	0.014191	0.075989	0.039368	-0.009003	-0.033417	0.15091	0.048981	-0.1152	0.16861	-0.003357	0.001831
16.001	-0.005951	0.49896	0.032959	0.010986	-0.019073	0.0354	0.51682	0.006561	-0.31693	-0.038452	-0.011749	0.007629	0.004425	-0.052948	0.30472	0.022278	0.017853	-1.0428	0.27863	-0.0354	-0.15015	0.0177	0.021057	-0.021515	-0.011749	-0.007172	0.14252	0.11276	-0.033417	-0.25207	-0.004425	0.011749
16.002	-0.005188	0.42709	0.015717	0.019226	-0.010223	0.048828	0.46097	0.008545	-0.30609	-0.001373	0.029297	0.004272	-0.054779	-0.077057	0.034637	0.018158	-0.006104	-1.0687	0.25055	-0.005493	-0.032654	-0.034637	0.022278	-0.002136	0.01358	0.004578	-0.078583	0.024719	-0.13702	-0.065155	-0.002441	0.009766
16.003	-0.003052	0.38879	-0.032043	0.019684	-0.003662	0.049286	0.45334	0.00946	-0.30792	0.014954	-0.000153	-0.00061	-0.077667	-0.098572	0.055542	0.012817	0.002136	-0.96985	0.20996	0.028381	0.094757	-0.053711	0.021515	-0.023651	0.007172	0.009155	-0.36819	-0.15335	-0.14816	0.029755	-0.002899	0.000458
16.004	-0.001526	0.34317	-0.034485	0.002136	-0.015564	0.041351	0.42038	-0.00946	-0.3215	-0.001526	0.023499	-0.006714	-0.046997	-0.11429	-0.35828	0.016327	0.031891	-0.96695	0.15076	0.060577	-0.095673	-0.052795	0.10696	-0.07782	-0.06012	0.008392	-0.17838	-0.020142	-0.010223	-0.038452	-0.003967	0.001678
16.005	-0.006561	0.30899	-0.020294	0.004272	-0.012817	0.033875	0.38208	0.012512	-0.31647	-0.021667	0.017242	-0.000458	-0.011139	0.019531	-0.13504	0.015564	0.024261	-0.94559	0.041046	0.022583	-0.22522	-0.079041	0.029755	-0.04837	-0.018616	0.034943	-0.14343	0.1239	0.062714	-0.2153	-0.004578	0.000763
16.006	-0.001068	0.27985	-0.023651	0.043335	-0.017242	0.023651	0.37033	0.030975	-0.27908	-0.015259	0.012665	-0.002747	0.045319	0.013733	-0.08728	0.018005	0.015717	-0.84198	0.022736	-0.078735	-0.066986	-0.06958	0.009918	-0.015869	0.012054	0.048523	-0.07431	0.006714	0.11795	-0.10834	-0.003204	-0.009766
16.007	0.001526	0.3009	-0.02243	0.015564	-0.006256	0.005951	0.33752	0.014954	-0.28366	-0.011139	0.037231	-0.001068	0.039673	-0.090637	-0.13825	0.014343	0.027313	-0.6781	-0.17273	-0.14023	0.13092	-0.03891	-0.006409	-0.026093	0.074463	0.001984	0.24429	-0.014954	0.1445	0.072174	-0.003815	-0.002899
16.008	-0.002441	0.27176	-0.017395	0.005341	-0.010986	0.014496	0.30731	0.010529	-0.28458	0.009613	0.076294	0.005035	-0.012207	-0.056305	-0.07843	0.003204	0.021667	-0.63461	0.00473	-0.086517	0.025177	0.043182	-0.011902	-0.047607	0.054016	-0.12878	0.27405	-0.041809	0.14008	-0.009003	-0.001984	-0.009308
16.009	0.007477	0.26398	0.011444	-0.029755	-0.014954	-0.010529	0.2861	0.011902	-0.29144	-0.010071	0.06546	-0.000916	-0.032501	-0.016632	0.13534	0.012665	-0.011749	-0.47134	0.28961	-0.017395	0.089264	0.035858	0.022125	0.018768	0.024567	-0.13641	0.177	-0.056305	0.35492	-0.28366	-0.000916	-0.000153
16.01	0.005188	0.23041	0.005798	-0.036316	-0.010986	-0.02594	0.26199	0.010376	-0.27435	-0.005798	0.039063	0.000153	-0.048523	-0.022888	-0.017548	0.016937	-0.019226	-0.46188	0.024109	0.13107	-0.059204	0.035248	0.026245	0.018005	0.009613	-0.16937	0.1207	-0.037079	0.42206	-0.18265	-0.001526	0.002136
16.011	0.008698	0.20371	-0.012054	0.005646	0.000153	-0.023346	0.22232	0.010834	-0.29694	-0.012665	0.005493	0.002594	-0.017853	-0.02533	0.32455	0.014648	0.010681	-0.3241	-0.22842	0.21912	-0.26199	0.012817	0.015411	0.060577	0.011749	-0.028992	0.11704	-0.097504	-0.61829	-0.000153	-0.002594	0.000305
16.012	0.005646	0.18372	-0.023956	0.048981	-0.006409	-0.019073	0.19547	0.012665	-0.32654	-0.02533	0.03479	0.004425	0.005035	-0.040283	-0.19196	0.007782	0.026703	-0.15503	-0.007019	0.15121	-0.19974	0.077515	-0.018311	0.11993	0.027466	-0.000763	0.058441	-0.18784	-0.51636	0.30243	-0.003967	-0.001068
16.013	0.011749	0.13473	0.02121	0.016937	-0.00473	-0.016937	0.1506	0.002594	-0.31982	-0.013733	0.067902	0.001678	0.002747	-0.035095	-0.040436	0.015564	0.029449	-0.006104	0.34393	0.014038	-0.099792	0.083313	0.001678	-0.019226	0.000305	0.023804	0.061188	-0.00824	-0.36911	-0.1944	-0.005951	-0.009308
16.014	0.009308	0.1001	0.068512	-0.006866	0.004272	-0.01236	0.17548	0.004272	-0.32959	-0.004578	0.020599	-0.001221	0.006561	-0.06424	-0.033264	0.007019	-0.018005	0.089111	0.30502	0.001373	0.060425	0.054932	0.084991	-0.03952	-0.028534	0.06012	-0.026398	0.090485	0.061188	-0.78201	-0.004425	-0.006256
16.015	0.009766	0.049286	0.039063	-0.004272	-0.007629	0.013275	0.10788	0.005035	-0.36057	-0.012665	0.019073	-0.007324	-0.005798	-0.056458	-0.069275	0.002441	-0.040588	0.16815	0.13886	-0.044708	-0.046387	0.091553	0.088501	-0.072784	-0.024872	0.10468	-0.050659	0.10529	-0.044861	-0.79071	-0.00351	0.001221
16.016	0.01236	0.055542	0.045013	0.012817	-0.007324	-0.002136	0.11093	0.001678	-0.36072	-0.018768	-0.021667	0.004272	-0.013123	-0.065613	-0.031891	0.002136	-0.013428	0.2832	0.087128	-0.010681	-0.14801	0.094757	0.057983	-0.081787	-0.053101	-0.006256	0.031281	0.047607	-0.020599	-0.28107	-0.00351	0.006409
16.017	0.002136	0.020599	0.020142	0.016174	0.006409	0.007324	0.10498	0.00473	-0.38956	0.009308	-0.014801	-0.003815	0.026245	-0.052185	0.071106	-0.000763	0.015411	0.33463	-0.075684	-0.002441	-0.17853	0.1239	0.05249	-0.089722	-0.051727	-0.093384	0.059662	0.010376	0.093231	0.71198	-0.001984	0.012054
16.018	0.00412	-0.012207	0.016479	0.001678	-0.012512	0.007782	0.10666	0.010986	-0.38834	-0.003052	0.065765	0.001831	0.03891	0.012207	0.010376	-0.00473	0.014496	0.33569	-0.1236	0.001221	-0.018005	0.10407	0.11643	-0.049591	-0.054474	-0.09201	0.10742	-0.1796	0.08194	1.5402	-0.001831	0.010986
16.019	-0.00412	-0.019226	0.029755	-0.011597	-0.014648	0.032501	0.07782	0.00946	-0.3714	-0.007477	0.021515	0.000305	0.070953	0.025635	-0.039215	-0.008087	0.005035	0.36209	-0.11032	0.054169	0.26627	0.030975	0.034485	0.027924	-0.018921	0.016479	0.14648	-0.28931	-0.029449	0.86121	-0.005646	0.012512
16.02	-0.001526	-0.028076	0.007172	0.000458	0	0.0354	0.068512	0.000153	-0.37155	0.001068	-0.071716	0.001373	0.049133	0.00061	-0.075989	0.002594	-0.019531	0.43808	-0.077362	0.037537	0.26459	0.00885	-0.10346	0.059662	0.025177	0.13412	0.10895	0.1474	-0.062714	-0.17166	-0.001678	-0.00351
16.021	0.005035	-0.028992	-0.016937	0.007935	0.005951	0.046082	0.063019	0.012512	-0.37766	-0.006409	-0.027313	0.001526	0.051117	-0.006561	0.11704	-0.027771	-0.040131	0.56213	-0.005035	-0.033722	0.070801	-0.009003	-0.09613	0.11459	0.10315	0.10239	0.1239	0.20355	-0.13412	-0.49545	-0.005188	-0.001831
16.022	0.006409	-0.029602	-0.043793	0.009155	-0.00946	0.066681	0.037384	0.005341	-0.38055	-0.02533	-0.13428	0.003815	0.090485	0.00885	0.22583	-0.001526	-0.020142	0.62241	-0.15259	0.006561	0.14221	-0.053711	-0.020599	0.043488	0.063171	0.06073	0.00351	0.14587	-0.1503	-0.3772	-0.003052	0.001221
16.023	0.001068	-0.059204	-0.001221	0.003052	-0.007324	0.036163	-0.000916	0.010223	-0.35614	0.013275	-0.168	-0.000153	0.091248	-0.032959	0.31342	0.000458	-0.006866	0.77713	-0.095978	-0.004578	0.1004	-0.067902	0.042725	-0.028229	0.019531	0.021515	0.13046	0.040894	-0.20157	-0.23468	-0.002594	0.00412
16.024	0.003052	-0.039368	-0.004425	-0.010376	-0.00824	0.070648	-0.003967	0.010223	-0.31448	0.007172	-0.0737	0.008698	0.029449	0.034332	0.12543	-0.003204	0.00824	0.81924	0.001831	-0.018005	0.054779	-0.089722	0.027313	-0.007019	0.070038	0.064697	0.43533	-0.00885	-0.20325	0.067291	-0.002899	0.002899
16.025	-0.001068	-0.073547	0.025635	-0.003204	-0.013733	0.062561	-0.018463	0.013123	-0.25681	0.001068	-0.026855	0.005035	-0.019379	0.083008	-0.12344	-0.016022	0.016022	0.89493	0.22369	-0.027161	0.034637	-0.068512	0.020752	0.018616	0.09491	0.10452	0.16068	-0.024719	0.002899	0.57587	0.007172	-0.002289
16.026	-0.006104	-0.097351	0.034943	0.007477	-0.014801	0.072021	-0.014191	0.012817	-0.23911	-0.023804	0.03418	0.009003	-0.046844	0.076599	-0.31921	-0.01358	0.031128	0.90607	0.43594	0.007172	0.022888	-0.069885	-0.030365	0.016327	0.13565	0.074158	-0.050049	-0.0354	0.16617	0.39719	-0.001068	0.005188
16.027	-0.004578	-0.099182	0.022583	-0.011139	-0.01297	0.067139	-0.032806	0.012817	-0.20416	-0.052032	0.086823	0.007477	-0.014801	-0.024414	-0.39688	-0.022736	0.024719	1.0318	0.40237	0.03418	0.008545	-0.066071	0.040588	0.035095	0.078583	0.032196	-0.16434	-0.06485	0.22583	0.16434	0.000763	0.005646
16.028	0	-0.1091	0.006714	0.002289	-0.017242	0.054474	-0.033417	0.003815	-0.17944	-0.03891	0.12955	0.006256	-0.002747	-0.1149	-0.094452	-0.0177	0.019531	1.1044	0.18585	0.002289	-0.036316	-0.087585	0.12116	0.026855	-0.043182	-0.003052	-0.4834	-0.047913	0.10239	0.11017	-0.00412	0.001984
16.029	0.00351	-0.12024	0.003662	0.004425	-0.007477	0.029907	-0.044403	0.011902	-0.14008	-0.035248	0.076904	0.00885	0.031433	-0.13763	0.41	-0.019073	0.00946	1.0626	0.21744	-0.009918	0.050659	-0.074921	0.12207	0.009766	-0.12268	-0.003967	-0.51315	0.07782	-0.065155	0.14984	-0.007477	0.004578
16.03	0.001831	-0.15411	0.022888	0.015564	-0.02594	0.022736	-0.059204	0.005493	-0.077362	-0.014648	-0.007172	0.013123	0.029602	-0.087738	0.57205	-0.010071	-0.010681	1.0385	0.037231	0.053406	0.027466	-0.070953	0.072784	-0.052643	-0.1889	0.017395	-0.37842	0.050659	-0.1413	0.10696	-0.005341	0.006561
16.031	0.000153	-0.1738	0.019684	-0.000458	-0.010376	0.004272	-0.058746	0.004883	-0.041046	0.003052	-0.079803	0.011292	0.054779	-0.018463	-0.1442	-0.023041	-0.007935	0.96008	-0.092773	0.046387	-0.13672	0.021667	-0.084534	-0.054474	-0.15182	0.026855	-0.031281	-0.021667	-0.1648	-0.03952	0.000305	0.008087
16.032	0.006866	-0.19119	0.010223	0.001678	0.019684	0.009003	-0.069122	0.005188	-0.028687	0.004578	-0.051117	0.008698	0.044403	-0.016785	-0.31632	-0.011292	-0.023193	1.0136	0.065918	-0.030365	-0.14465	0.065613	-0.1886	-0.010681	-0.027771	0	0.21484	-0.050964	-0.14175	0.021362	-0.005035	0.000458
16.033	-0.003815	-0.16083	0.000763	0.009308	-0.026093	0.010071	-0.063782	0.006409	0.020447	0.006409	0.11917	0.009308	0.002747	-0.035553	-0.20386	-0.013123	-0.045471	1.0452	0.0737	-0.080719	-0.048981	0.028076	-0.14542	0.14954	0.10376	-0.005188	0.15289	-0.037079	-0.1294	0.18845	-0.002289	0.00351
16.034	0.010223	-0.1947	-0.010986	0.014343	0.00351	0.018463	-0.050507	0.010223	0.039368	-0.006409	0.21988	0.005035	-0.061188	-0.023193	0.26566	-0.011139	-0.024567	1.0222	-0.11673	-0.09491	0.035248	0.006104	0.062256	0.034332	0.088654	-0.031433	0.1503	-0.036621	-0.094147	0.12329	-0.005493	-0.000916
16.035	0.003815	-0.19501	0.001373	0.019989	0.005798	0.006256	-0.068665	-0.00412	0.064545	-0.01297	0.059967	0.015106	-0.001526	-0.046997	-0.036316	-0.008392	0.00473	0.94894	-0.072632	-0.028076	0.015106	0.029755	0.27496	-0.031281	-0.031128	-0.029602	0.058899	0.01236	0.061188	-0.12177	-0.003357	-0.004883
16.036	0.013123	-0.21042	0.007935	0.006714	-0.001984	0.028992	-0.072021	0.003967	0.095673	-0.018616	-0.06134	0.018768	0.079651	-0.037842	-0.1178	-0.019531	0.036621	0.85892	0.013123	0.12634	-0.030365	0.007935	0.28564	-0.061493	-0.042114	-0.001831	0.021973	-0.000458	0.083771	-0.081177	-0.00412	-0.014648
16.037	0.014648	-0.20721	-0.023804	0.00824	-0.00351	0.019379	-0.060272	0.005341	0.11093	0.003662	-0.016632	0.015717	0.046997	-0.13351	-0.14511	-0.014343	0.02655	0.89142	0.24765	0.087891	-0.040894	0.031738	0.23789	-0.006561	-0.031128	0.018463	0.073395	-0.012054	-0.11917	0.14389	-0.003052	-0.007935
16.038	0.007324	-0.21042	-0.016937	-0.002289	-0.005798	0.029144	-0.09201	0.002289	0.11643	0.003662	0.005798	0.016022	0.028839	-0.1329	-0.058289	-0.014496	-0.011902	0.91782	0.44983	0.017395	-0.2214	0.1091	0.13687	0.005646	-0.042572	-0.000763	-0.040894	-0.013123	-0.13367	0.17364	-0.002289	-0.011139
16.039	0.006866	-0.19989	0.000305	0.009003	-0.005035	0.025024	-0.073853	0.004883	0.13168	0.00946	-0.026093	0.016174	0.020599	-0.11444	-0.038147	-0.008698	-0.010986	0.82031	0.39047	0.030212	-0.2243	0.14252	-0.078583	-0.11078	-0.0383	-0.080109	-0.10605	0.006866	0.00824	0.010071	-0.001373	-0.005341
